# xmcd
#
# Track frame offsets:
#	150
#	14239
#	33187
#	51351
#	69829
#	77022
#	92678
#	100184
#	121169
#	133534
#	142608
#	149644
#	170316
#	182368
#	199749
#	213525
#	227301
#	238255
#	251404
#	259067
#	269394
#	287088
#	297415
#	305391
#	313367
#	323538
#
# Disc length: 4589 seconds
#
# Revision: 1
# Processed by: cddbd v1.5.1PL0 Copyright (c) Steve Scherf et al.
# Submitted via: EasyCDDAExtractor 8.0.2.1
#
DISCID=7511eb1a
DTITLE=112 - Welcome To Room 112
DYEAR=2004
DGENRE=R&B
TTITLE0=Cheat On You (Featuring Jay-Z, Mase and Lil Cease)
TTITLE1=Only You (Rrmix) (Featuring The Notorious B.I.G. and Mase)
TTITLE2=Love Me (Featuring Mase)
TTITLE3=You Already Know (Remix) (Featuring Foxy Brown and Ja Rule)
TTITLE4=Peaches and Cream (Remix) (Featuring Ludacris)
TTITLE5=If I Hit (Featuring T.I.)
TTITLE6=Dance With Me (Featuring Beanie Sigel)
TTITLE7=Hot And Wet (Remix) (Featuring Ludacris, Chingy and Ghostface)
TTITLE8=Na Na Na Na (Featuring Supercat)
TTITLE9=Peaches And Cream (Remix) (Featuring Fabolous)
TTITLE10=Ma Ma Ma (Featuring Joe Budden)
TTITLE11=It's Over Now (Remix) (Featuring Prodigy, Shyne and G-Dep)
TTITLE12=Missing You (Featuring The Notorious B.I.G.)
TTITLE13=Come See Me (Featuring Mr. Cheeks)
TTITLE14=Float On (Remix) (Featuring Lil Kim and The Isley Bros.)
TTITLE15=Anywhere (Remix) (Featuring Shyne and Lil Zane)
TTITLE16=The Only One (Featuring Lil Kim)
TTITLE17=It's Going Down (Featuring T.I.)
TTITLE18=Sky's The Limit (Featuring The Notorious B.I.G.)
TTITLE19=Anywhere (Featuring Lil Zane)
TTITLE20=Don't Hate Me (Featuring Twista)
TTITLE21=Hey Love (Featuring Mobb Deep)
TTITLE22=Calling Me (Featuring Lil Zane)
TTITLE23=Trying To Get At You (Featuring 8-Ball and MJG)
TTITLE24=In The Club (Featuring Three 6 Mafia)
TTITLE25=All Cried Out (Featuring Allure)
EXTD=
EXTT0=
EXTT1=
EXTT2=
EXTT3=
EXTT4=
EXTT5=
EXTT6=
EXTT7=
EXTT8=
EXTT9=
EXTT10=
EXTT11=
EXTT12=
EXTT13=
EXTT14=
EXTT15=
EXTT16=
EXTT17=
EXTT18=
EXTT19=
EXTT20=
EXTT21=
EXTT22=
EXTT23=
EXTT24=
EXTT25=
PLAYORDER=
